<svg xmlns="http://www.w3.org/2000/svg" fill-rule="evenodd" stroke-miterlimit="10" clip-rule="evenodd" viewBox="0 0 384 262"><path fill="url(#_Linear1)" fill-rule="nonzero" d="M299 604.11c2.348-9.444-1.381-19.415-9.35-25-2.06-1.39-4.36-2.45-6.26-4.05-3.17-2.67-5-6.6-6.28-10.53-3.14-9.42-4.13-20-9.63-28.51-5-7.75-14.76-10-23.41-10.79-3.15-.28-6.46-.43-9.34.88-4.82 2.18-7.12 7.87-7.34 13.16-.22 5.29 1.16 10.5 1.5 15.78.34 5.28-.6 11.09-4.49 14.67s-9.47 4-14.64 4.72a96.904 96.904 0 00-19.84 4.93c-5.39 2-11.4 5.51-11.65 11.23-.21 4.68 3.57 8.42 6.41 12.15 5.31 7 8 16.16 6.16 24.73-1.84 8.57-8 16.21-9.07 25.05a10.881 10.881 0 00.89 6.62 12.122 12.122 0 003.34 3.55c3.33 2.57 7 4.64 10.2 7.43 6.57 5.82 10.13 14.27 12.87 22.61.26.8.5 1.62.75 2.42h-6.46c-13.057.07-23.783 10.783-23.87 23.84.06 13.083 10.807 23.83 23.89 23.89h64.5c13.083-.06 23.83-10.807 23.89-23.89-.06-13.083-10.807-23.83-23.89-23.89H250.2c4.18-5.6 8.55-10.86 15-13 6.45-2.14 14.26-.89 19.32-5.39a15.151 15.151 0 004.39-8.69 25.89 25.89 0 00-2.83-17.18c-2-3.63-5-6.92-5.65-11-.55-3.51.72-7.07 2.44-10.19 4.88-8.87 13.51-15.76 16.13-25.55z" transform="translate(-45.148 -47.008) scale(.39506)"/><path fill="#70a979" fill-rule="nonzero" d="M51.184 162.54c-1.185-.107-2.43-.162-3.512.331-1.813.822-2.679 2.963-2.766 4.95-.086 1.988.439 3.951.565 5.926.127 1.976-.225 4.172-1.69 5.531-1.466 1.36-3.556 1.505-5.508 1.774a36.47 36.47 0 00-7.462 1.865c-2.027.739-4.287 2.07-4.381 4.227-.08 1.762 1.343 3.16 2.413 4.57 2 2.624 2.995 6.08 2.315 9.304-.68 3.224-2.994 6.1-3.413 9.427a4.094 4.094 0 00.336 2.488c.325.526.754.981 1.26 1.336 1.252.968 2.651 1.746 3.836 2.797 2.473 2.188 3.809 5.369 4.844 8.505a68.853 68.853 0 012.37 9.43c2.13-1.37 4.883-1.35 7.154-2.465 4.84-2.37 6.468-9.244 11.576-10.955 2.417-.79 5.365-.335 7.269-2.026a5.696 5.696 0 001.651-3.268 9.742 9.742 0 00-1.066-6.463c-.763-1.367-1.885-2.603-2.126-4.152-.21-1.323.273-2.659.917-3.832 1.837-3.338 5.084-5.926 6.076-9.612a8.889 8.889 0 00-3.516-9.406 26.2 26.2 0 01-2.37-1.525c-1.186-1.003-1.87-2.485-2.371-3.95-1.185-3.556-1.553-7.507-3.623-10.726-1.857-2.94-5.523-3.79-8.778-4.081z"/><path fill="none" stroke="#535461" stroke-opacity=".6" stroke-width=".395" d="M51.148 162.662s4.492 60.211-7.19 70.546"/><path fill="#989c9f" d="M69.124 232.473a6.008 6.008 0 00-6.005-6.005h-30.23a6.008 6.008 0 00-6.005 6.005v5.966a6.008 6.008 0 006.005 6.004h30.23a6.008 6.008 0 006.005-6.004v-5.966z"/><path fill="none" stroke="#535461" stroke-opacity=".6" stroke-width=".395" d="M26.437 186.026s11.489-1.34 25.517 7.194m-.225 7.186s6.384-10.56 20.093-12.579m-44.278 22.689s15.924-2.699 23.241 1.797m-.893 6.16s8.336-3.782 17.715-.712"/><g fill-rule="nonzero"><path d="M352.733 216c-4.217 0-7.688 3.47-7.688 7.687 0 4.217 3.471 7.688 7.688 7.688 4.22 0 7.688-3.47 7.688-7.688 0-4.217-3.468-7.688-7.688-7.688zm0 12.416c-2.6 0-4.74-2.14-4.74-4.74 0-2.602 2.14-4.742 4.74-4.742s4.741 2.14 4.741 4.741v.004c0 2.6-2.141 4.74-4.74 4.74v-.003z"/><path fill="#fff" fill-opacity=".09" d="M352.733 216c-4.217 0-7.688 3.47-7.688 7.687 0 4.217 3.471 7.688 7.688 7.688 4.22 0 7.688-3.47 7.688-7.688 0-4.217-3.468-7.688-7.688-7.688zm0 12.416c-2.6 0-4.74-2.14-4.74-4.74 0-2.602 2.14-4.742 4.74-4.742s4.741 2.14 4.741 4.741v.004c0 2.6-2.141 4.74-4.74 4.74v-.003z"/><path d="M323.16 210.089h29.565v29.262a3.87 3.87 0 01-3.851 3.852h-21.855a3.87 3.87 0 01-3.852-3.852V210.09h-.008z"/></g><path fill="#5b361e" d="M0 243.203h383.777v13.01H0z"/><path fill="url(#_Linear2)" fill-rule="nonzero" d="M753.25 514.26c-10.41-37.79-69.44-65.39-113.85-71.51v-33.18h.14v-1.27c31.911-11.872 56.643-37.796 67-70.23a119.797 119.797 0 007.15-15.42c4.74-1.73 8.32-9.54 8.32-18.94a33.091 33.091 0 00-1.34-9.5c.582-4.785.88-9.6.89-14.42a120.343 120.343 0 00-39.7-89.38 23.47 23.47 0 00.38-5.88c-1-15.53-17.59-26.08-33.13-26.78 8.367-9.492 10.526-23.014 5.53-34.64-9.91 14.44-30.26 16-47.77 16.09 7.56-2.93 11-13.4 6.56-20.21-18.3 24.53-54 29.08-75.76 50.59a63.87 63.87 0 00-11.78 16.07c-28.642 22.817-45.346 57.511-45.32 94.13.009 4.776.3 9.548.87 14.29a33.014 33.014 0 00-1.38 9.63c0 9.44 3.61 17.28 8.39 19a119.816 119.816 0 007.18 15.47c10.317 32.25 34.854 58.062 66.54 70v34.58c-44.58 6-104.08 33.83-114.4 71.92-8.91 32.9-18.42 69-23.16 90.24 40.57 28.51 125.69 45.24 179 45.24 50.69 0 133.53-15.11 172.91-41.06-4.16-23.36-13.97-61.09-23.27-94.83z" transform="translate(-45.148 -47.008) scale(.39506)"/><path fill="#4a5568" fill-rule="nonzero" d="M193.315 206.115c19.318 0 50.887-5.756 65.896-15.649-1.624-8.88-5.365-23.257-8.909-36.12-4.511-16.383-33-27.741-49.99-27.741h-16.376c-17.047 0-45.57 11.421-50.026 27.875-3.398 12.54-7.02 26.307-8.826 34.39 15.447 10.868 47.9 17.245 68.23 17.245z"/><circle cx="486.81" cy="164.5" r="116.24" fill="#554229" transform="translate(0 .004) scale(.39506)"/><path fill-opacity=".09" fill-rule="nonzero" d="M177.497 103.237h29.424v23.538c0 8.07-6.642 14.712-14.712 14.712-8.071 0-14.712-6.642-14.712-14.712v-23.538z"/><path fill="#e8ab98" fill-rule="nonzero" d="M181.724 102.147h20.985c2.315 0 4.22 1.904 4.22 4.219v19.318c0 8.071-6.642 14.712-14.713 14.712-8.07 0-14.712-6.64-14.712-14.712v-19.318c0-2.315 1.905-4.22 4.22-4.22z"/><path fill-opacity=".09" fill-rule="nonzero" d="M177.552 114.346a42.378 42.378 0 0029.424.083v-3.615h-29.424v3.532z"/><circle cx="486.81" cy="187.67" r="106.75" fill="#e8ab98" transform="translate(0 .004) scale(.39506)"/><path fill-opacity=".09" fill-rule="nonzero" d="M162.259 35.78s17.778 36.078 67.91 15.12l-11.653-18.3-20.702-7.427-35.555 10.608z"/><path fill="#554229" fill-rule="nonzero" d="M162.259 35.251s17.778 36.077 67.91 15.12l-11.653-18.304-20.702-7.427-35.554 10.61z"/><path fill="#554229" fill-rule="nonzero" d="M162.12 32.814a24.366 24.366 0 016.041-9.821c8.296-8.202 21.894-9.932 28.871-19.283 1.675 2.595.395 6.585-2.5 7.7 6.672-.044 14.427-.629 18.204-6.132a12.518 12.518 0 01-2.11 13.199c5.926.269 12.247 4.29 12.642 10.204.257 3.951-2.216 7.676-5.456 9.936s-7.158 3.299-11.018 4.148c-11.275 2.49-52.041 12.895-44.673-9.951zm72.372 41.698h-1.122L211.618 93.87c-20.938-9.817-36.346 0-36.346 0l-22.814-18.568-2.3.289c.62 22.692 19.457 41.02 42.157 41.02 23.11 0 42.137-18.996 42.173-42.107l.004.008zm-42.24 26.793c-8.205 0-14.854-1.663-14.854-3.713s6.653-3.714 14.854-3.714 14.854 1.663 14.854 3.714c0 2.05-6.649 3.713-14.854 3.713z"/><ellipse cx="380.01" cy="187.57" fill="#e8ab98" rx="9.93" ry="18.62" transform="translate(0 .004) scale(.39506)"/><ellipse cx="593.55" cy="187.57" fill="#e8ab98" rx="9.93" ry="18.62" transform="translate(0 .004) scale(.39506)"/><path fill="#989c9f" d="M270.537 161.556c0-5.852-4.751-10.604-10.603-10.604h-136.09c-5.853 0-10.604 4.752-10.604 10.604v71.04c0 5.852 4.751 10.603 10.603 10.603h136.09c5.853 0 10.604-4.751 10.604-10.603v-71.04z"/><path fill="#2d3748" fill-rule="nonzero" d="M196.994 198.32c-.008-1.354.604-2.377 1.844-3.13-.693-.991-1.742-1.538-3.126-1.645-1.31-.104-2.741.763-3.265.763-.555 0-1.824-.727-2.82-.727-2.058.033-4.247 1.642-4.247 4.916 0 .966.177 1.966.53 2.996.473 1.354 2.178 4.677 3.957 4.622.93-.022 1.588-.662 2.797-.662 1.175 0 1.782.662 2.82.662 1.794-.027 3.337-3.046 3.787-4.403-2.406-1.134-2.277-3.322-2.277-3.391zm-2.09-6.06c1.008-1.195.915-2.285.885-2.675-.888.052-1.917.604-2.504 1.287-.646.731-1.027 1.635-.945 2.654.963.074 1.842-.42 2.564-1.266z"/><path fill="#5b361e" d="M16.26 256.212h351.252v5.322H16.261z"/><path fill-opacity=".09" d="M16.26 256.212h351.252v1.774H16.261z"/><path fill="#fff" fill-opacity=".09" fill-rule="nonzero" d="M347.412 210.089v27.346c0 3.162-2.602 5.764-5.764 5.764h2.955c3.162 0 5.764-2.602 5.764-5.764V210.09h-2.955z"/><path fill="#eee" fill-opacity=".18" fill-rule="nonzero" d="M328.998 188.053c-.498.086-1.063.22-1.308.663-.395.703.316 1.498.956 1.976 1.186.892 2.434 1.77 3.24 3.014.806 1.244 1.059 2.983.178 4.18-1.15 1.56-3.892 1.892-4.156 3.812-.17 1.233.893 2.283 1.975 2.9 2.663 1.525 6.096 1.932 8.028 4.318.79-1.64 2.583-2.588 4.345-2.995 1.762-.407 3.627-.375 5.432-.648.581-.087 1.237-.264 1.498-.79.505-1.023-.933-2.252-.439-3.279.395-.79 1.486-.723 2.295-1.035 1.32-.51 1.861-2.208 1.49-3.555-.372-1.348-1.43-2.43-2.544-3.303-2.995-2.37-6.598-3.737-10.244-4.74-1.695-.463-3.686-1.186-5.444-1.261-1.68-.083-3.619.446-5.302.743z"/><path fill="#ea7616" d="M291.535.004h92.463v130.769h-92.463z"/><path fill-rule="nonzero" d="M351.977 70.762c1.016 0 1.94.176 2.77.529.815.34 1.522.9 2.044 1.614.452.614.73 1.245.83 1.894.1.648.15 1.708.15 3.176v9.658h-4.39V77.628c0-.885-.152-1.6-.453-2.143-.393-.764-1.137-1.147-2.234-1.147-1.137 0-2 .38-2.588 1.14-.588.76-.883 1.843-.883 3.252v8.903h-4.285V65.465h4.285v7.862c.624-.956 1.346-1.622 2.166-2a6.12 6.12 0 012.588-.565zm14.597 3.569c-.995 0-1.768.312-2.316.935-.548.625-.893 1.47-1.034 2.536h6.685c-.07-1.137-.415-2-1.034-2.588-.618-.589-1.385-.883-2.3-.883zm0-3.546c1.369 0 2.6.256 3.698.77 1.096.512 2.001 1.322 2.716 2.43.644.975 1.061 2.106 1.252 3.394.11.755.156 1.841.136 3.26h-11.257c.06 1.65.578 2.806 1.554 3.47.594.413 1.308.62 2.143.62.885 0 1.604-.252 2.158-.755.302-.272.568-.65.8-1.132h4.39c-.11.976-.618 1.966-1.524 2.973-1.408 1.6-3.38 2.399-5.915 2.399-2.092 0-3.938-.674-5.538-2.022-1.6-1.348-2.399-3.541-2.399-6.58 0-2.846.722-5.03 2.165-6.549 1.444-1.519 3.318-2.278 5.621-2.278zm8.823-5.299h4.3V87.73h-4.3V65.486z"/><path fill="#fff" d="M350.355 99.725l3.836-10.556h-7.672l3.836 10.556z"/><path fill-rule="nonzero" d="M353.724 89.169h4.618l-5.931 16.448h-4.542l-5.9-16.448h4.828l3.558 10.424 3.369-10.424zm11.836 3.108c-.996 0-1.768.312-2.317.936-.548.623-.892 1.468-1.033 2.535h6.685c-.07-1.137-.415-2-1.034-2.588-.618-.589-1.386-.883-2.3-.883zm0-3.546c1.368 0 2.6.257 3.697.77s2.002 1.322 2.716 2.43c.644.975 1.062 2.106 1.252 3.394.111.755.157 1.841.137 3.26h-11.258c.06 1.65.579 2.806 1.555 3.47.593.413 1.307.62 2.142.62.885 0 1.605-.252 2.158-.755.302-.272.568-.65.8-1.132h4.391c-.11.976-.619 1.966-1.524 2.973-1.408 1.6-3.38 2.399-5.915 2.399-2.093 0-3.939-.674-5.538-2.022-1.6-1.348-2.4-3.541-2.4-6.58 0-2.846.722-5.03 2.166-6.549 1.443-1.519 3.317-2.278 5.621-2.278zm-37.375 21.493v-3.063h2.294v-4.588h4.255v4.588h2.67v3.063h-2.67v8.691c0 .675.086 1.095.257 1.26.172.167.694.25 1.57.25.281 0 .563-.01.844-.03v3.214l-2.037.075c-2.032.07-3.42-.281-4.165-1.056-.482-.493-.724-1.252-.724-2.278v-10.126h-2.294zm14.703-5.176h-4.36v-3.969h4.36v3.97zm-4.36 1.962h4.36v16.448h-4.361V107.01zm16.65 5.9a3.822 3.822 0 00-.62-1.66c-.482-.664-1.232-.995-2.248-.995-1.449 0-2.44.719-2.973 2.157-.281.765-.422 1.78-.422 3.048 0 1.208.14 2.178.422 2.913.514 1.368 1.48 2.052 2.898 2.052 1.006 0 1.72-.272 2.143-.815.422-.543.678-1.247.77-2.113h4.39c-.1 1.308-.573 2.546-1.418 3.713-1.348 1.88-3.345 2.822-5.99 2.822-2.646 0-4.593-.785-5.84-2.355-1.249-1.57-1.872-3.606-1.872-6.111 0-2.827.689-5.025 2.067-6.595 1.379-1.569 3.28-2.353 5.704-2.353 2.062 0 3.75.462 5.063 1.388 1.313.925 2.09 2.56 2.331 4.904h-4.405zm14.732 2.55c-.27.171-.545.31-.822.415a6.886 6.886 0 01-1.139.294l-.966.181c-.905.162-1.554.357-1.946.589-.664.392-.997 1.001-.997 1.826 0 .734.204 1.265.612 1.592.407.327.903.49 1.486.49.925 0 1.778-.271 2.558-.814.78-.543 1.184-1.535 1.214-2.973v-1.6zm-2.61-2.007c.795-.1 1.363-.226 1.705-.377.614-.261.92-.67.92-1.222 0-.674-.233-1.14-.701-1.396-.468-.257-1.154-.385-2.06-.385-1.016 0-1.735.252-2.158.755-.301.372-.503.875-.603 1.509h-4.15c.09-1.439.493-2.621 1.207-3.547 1.137-1.448 3.089-2.172 5.855-2.172 1.8 0 3.4.357 4.799 1.071 1.398.714 2.097 2.062 2.097 4.044v7.545c0 .523.01 1.157.03 1.902.03.563.116.945.257 1.146.14.202.352.367.634.498v.634h-4.678a4.8 4.8 0 01-.272-.936c-.05-.292-.09-.623-.12-.996a8.834 8.834 0 01-2.053 1.645c-.925.533-1.971.8-3.138.8-1.49 0-2.72-.425-3.69-1.275-.97-.85-1.456-2.055-1.456-3.614 0-2.022.78-3.486 2.338-4.391.856-.493 2.113-.846 3.773-1.057l1.464-.18z"/><path fill="#fff" fill-rule="nonzero" d="M314.95 48.557c1.016 0 1.94.176 2.77.528.815.342 1.522.9 2.044 1.615.452.614.73 1.245.83 1.894.1.65.15 1.707.15 3.176v9.658h-4.39V55.423c0-.886-.152-1.6-.453-2.143-.393-.765-1.137-1.147-2.234-1.147-1.137 0-2 .38-2.588 1.14-.588.759-.883 1.843-.883 3.251v8.904h-4.285V43.26h4.285v7.862c.624-.956 1.346-1.622 2.166-1.999a6.126 6.126 0 012.588-.566zm14.597 3.532c-.995 0-1.768.311-2.316.935-.548.624-.893 1.469-1.034 2.535h6.685c-.07-1.137-.415-2-1.034-2.588-.618-.588-1.385-.883-2.3-.883zm0-3.547c1.369 0 2.6.257 3.698.77 1.096.513 2.001 1.322 2.716 2.43.644.975 1.061 2.107 1.252 3.394.11.755.156 1.841.136 3.26h-11.257c.06 1.65.578 2.807 1.554 3.47.594.413 1.308.62 2.143.62.885 0 1.604-.252 2.158-.755.302-.272.568-.65.8-1.132h4.39c-.11.976-.618 1.967-1.524 2.973-1.408 1.6-3.38 2.4-5.915 2.4-2.092 0-3.938-.675-5.538-2.023s-2.399-3.541-2.399-6.58c0-2.846.722-5.03 2.165-6.548 1.444-1.52 3.318-2.279 5.621-2.279zm9.09-5.357h4.3v22.243h-4.3V43.185z"/><path d="M319.807 76.965l3.836-10.556h-7.672l3.836 10.556z"/><path fill="#fff" fill-rule="nonzero" d="M323.295 66.409h4.618l-5.93 16.448h-4.542l-5.9-16.448h4.828l3.438 10.556 3.488-10.556zm11.837 3.109c-.997 0-1.769.311-2.317.935-.548.623-.893 1.469-1.033 2.535h6.684c-.07-1.137-.414-2-1.033-2.588-.619-.589-1.386-.882-2.301-.882zm0-3.547c1.368 0 2.6.257 3.697.77 1.096.513 2.002 1.323 2.716 2.43.644.975 1.061 2.107 1.252 3.394.11.755.157 1.841.136 3.26h-11.257c.06 1.65.579 2.807 1.554 3.47.594.413 1.308.62 2.143.62.885 0 1.604-.252 2.158-.755.302-.272.568-.65.8-1.132h4.391c-.11.976-.619 1.967-1.524 2.973-1.408 1.6-3.38 2.399-5.916 2.399-2.092 0-3.938-.674-5.538-2.022-1.6-1.348-2.399-3.54-2.399-6.58 0-2.846.722-5.03 2.166-6.548 1.443-1.52 3.317-2.279 5.62-2.279zm-39.14 21.719v-3.064h2.293v-4.588h4.256v4.588h2.67v3.063h-2.67v8.692c0 .674.085 1.094.256 1.26.172.166.694.249 1.57.249.282 0 .563-.01.845-.03v3.214l-2.038.076c-2.032.07-3.42-.282-4.165-1.057-.482-.493-.724-1.252-.724-2.278V87.689h-2.293zm14.703-5.177h-4.362v-3.968h4.362v3.968zm-4.362 1.962h4.362v16.449h-4.362V84.475zm16.65 5.9a3.822 3.822 0 00-.618-1.66c-.483-.663-1.233-.995-2.249-.995-1.448 0-2.44.719-2.972 2.157-.282.765-.423 1.781-.423 3.049 0 1.207.14 2.178.423 2.912.513 1.368 1.479 2.052 2.897 2.052 1.006 0 1.72-.271 2.143-.815.422-.543.678-1.247.77-2.112h4.39c-.1 1.308-.573 2.545-1.418 3.712-1.348 1.881-3.345 2.822-5.99 2.822-2.646 0-4.593-.785-5.84-2.354-1.248-1.57-1.872-3.607-1.872-6.112 0-2.827.69-5.025 2.068-6.594 1.378-1.57 3.279-2.354 5.703-2.354 2.063 0 3.75.463 5.064 1.388 1.312.926 2.09 2.56 2.33 4.905h-4.405zm14.734 2.551c-.272.17-.546.309-.822.415-.277.106-.657.203-1.14.294l-.966.181c-.905.16-1.554.357-1.946.589-.664.392-.997 1-.997 1.825 0 .735.204 1.265.612 1.592.407.328.903.491 1.486.491.925 0 1.778-.272 2.558-.815.78-.543 1.185-1.534 1.215-2.973v-1.599zm-2.61-2.007c.794-.101 1.362-.227 1.704-.378.614-.261.92-.669.92-1.222 0-.674-.233-1.14-.701-1.396-.468-.256-1.154-.384-2.06-.384-1.016 0-1.735.25-2.158.754-.301.372-.503.875-.603 1.51h-4.15c.09-1.44.493-2.622 1.207-3.547 1.137-1.449 3.089-2.173 5.855-2.173 1.8 0 3.4.357 4.799 1.071 1.398.714 2.098 2.063 2.098 4.045v7.545c0 .523.01 1.157.03 1.901.03.563.115.946.256 1.147.14.2.352.367.634.498v.634h-4.678a4.804 4.804 0 01-.272-.936c-.05-.292-.09-.624-.12-.996a8.834 8.834 0 01-2.053 1.645c-.925.533-1.971.8-3.138.8-1.49 0-2.72-.426-3.69-1.275-.97-.85-1.456-2.055-1.456-3.615 0-2.022.78-3.485 2.339-4.39.855-.494 2.112-.846 3.772-1.057l1.464-.181z"/><path fill-rule="nonzero" d="M305.981 7.787a.71.71 0 00.13.355c.118.142.32.214.605.214.171 0 .31-.019.417-.057.203-.071.304-.206.304-.402a.298.298 0 00-.15-.266 1.61 1.61 0 00-.474-.162l-.367-.083c-.361-.082-.611-.17-.75-.266-.233-.16-.35-.411-.35-.751a1 1 0 01.34-.775c.225-.206.557-.31.995-.31.366 0 .678.098.936.292.258.194.394.476.407.845h-.698c-.012-.21-.103-.358-.273-.446a.922.922 0 00-.421-.087.784.784 0 00-.448.113.36.36 0 00-.167.316c0 .124.055.217.165.277.07.041.221.09.452.145l.598.143c.263.063.46.147.594.252.207.163.31.4.31.71a1 1 0 01-.363.79c-.243.209-.586.313-1.028.313-.452 0-.808-.103-1.067-.31-.26-.206-.389-.49-.389-.85h.692zm3.85-1.496h.68l.39 1.848.401-1.848h.7l-.745 2.567h-.69l-.403-1.87-.407 1.87h-.697l-.72-2.567h.72l.4 1.841.37-1.841zm3.23-.306h-.68v-.62h.68v.62zm-.68.306h.68v2.567h-.68V6.291zm1.854 1.747c.014.12.044.205.09.255.084.089.238.134.463.134a.7.7 0 00.314-.06c.078-.038.117-.097.117-.175a.191.191 0 00-.095-.173c-.062-.04-.296-.106-.699-.202-.29-.072-.495-.162-.615-.27-.119-.108-.179-.262-.179-.462a.8.8 0 01.28-.612c.185-.17.447-.255.785-.255.32 0 .581.064.783.192.202.128.317.348.347.663h-.67a.395.395 0 00-.074-.205c-.074-.091-.2-.137-.377-.137-.146 0-.25.023-.312.068-.062.046-.093.1-.093.16 0 .078.033.133.099.168.066.036.3.098.7.186.266.063.467.158.6.284a.65.65 0 01.198.484.78.78 0 01-.284.623c-.189.16-.482.241-.877.241-.403 0-.701-.085-.894-.256a.83.83 0 01-.288-.65h.68zm2.682 0c.014.12.045.205.092.255.083.089.237.134.461.134.132 0 .237-.02.315-.06.078-.038.117-.097.117-.175a.19.19 0 00-.095-.173c-.063-.04-.296-.106-.7-.202-.29-.072-.494-.162-.614-.27-.12-.108-.18-.262-.18-.462 0-.237.094-.442.28-.612.186-.17.448-.255.786-.255.32 0 .58.064.783.192.201.128.317.348.347.663h-.672a.397.397 0 00-.072-.205c-.074-.091-.2-.137-.377-.137-.147 0-.25.023-.312.068-.062.046-.093.1-.093.16 0 .078.033.133.098.168.067.036.3.098.7.186.267.063.467.158.6.284.133.13.199.29.199.484a.78.78 0 01-.284.623c-.19.16-.482.241-.878.241-.403 0-.701-.085-.893-.256a.83.83 0 01-.289-.65h.68zm4.258-2.049v2.266h.669c.342 0 .58-.169.716-.507.074-.185.11-.405.11-.661 0-.354-.055-.625-.166-.814-.11-.189-.33-.284-.66-.284h-.669zm.791-.603c.215.003.394.029.538.076.24.078.448.232.59.44.121.173.204.36.248.56.043.202.066.394.066.576 0 .461-.093.852-.279 1.172-.25.432-.638.648-1.163.648h-1.495V5.386h1.495zm3.085 2.998c.197 0 .348-.07.453-.209.105-.14.157-.339.157-.596 0-.257-.052-.456-.157-.595a.534.534 0 00-.452-.208.536.536 0 00-.454.208c-.106.14-.159.338-.159.595 0 .257.053.456.16.596.105.14.256.21.453.21zm1.315-.805c0 .377-.108.7-.325.967-.216.268-.546.401-.987.401-.441 0-.77-.133-.987-.401a1.49 1.49 0 01-.325-.967c0-.37.108-.691.325-.963.217-.272.546-.408.987-.408.441 0 .77.136.987.408a1.5 1.5 0 01.325.963zm.216-.787v-.478h.359v-.716h.663v.716h.417v.478h-.416V8.15c0 .105.013.17.04.197.026.025.108.038.245.038.044 0 .088 0 .131-.004v.502l-.318.012c-.317.01-.533-.045-.65-.165-.074-.078-.112-.196-.112-.356v-1.58h-.359zm2.393 1.246c.015.12.045.205.092.255.083.089.237.134.462.134.132 0 .237-.02.314-.06.078-.038.117-.097.117-.175a.19.19 0 00-.095-.173c-.063-.04-.295-.106-.699-.202-.29-.072-.495-.162-.614-.27-.12-.108-.18-.262-.18-.462 0-.237.094-.442.28-.612.186-.17.448-.255.785-.255.32 0 .582.064.783.192.202.128.318.348.348.663h-.672a.397.397 0 00-.073-.205c-.074-.091-.2-.137-.377-.137-.146 0-.25.023-.312.068-.062.046-.093.1-.093.16 0 .078.033.133.1.168.065.036.298.098.699.186.267.063.467.158.6.284a.65.65 0 01.198.484.78.78 0 01-.284.623c-.19.16-.481.241-.877.241-.403 0-.701-.085-.894-.256a.83.83 0 01-.288-.65h.68zm5.509-1.547c0-.18-.048-.31-.142-.386-.095-.077-.228-.116-.4-.116h-.675v1.022h.675c.172 0 .305-.04.4-.124.094-.084.142-.215.142-.396zm.719-.004c0 .409-.104.699-.311.869-.207.17-.504.254-.888.254h-.737v1.248h-.721V5.386h1.512c.348 0 .627.09.834.269.207.179.31.456.31.832zm1.884-.258l.031.002.058.003v.688a1.762 1.762 0 00-.193-.012c-.27 0-.452.088-.544.264-.052.099-.078.251-.078.457v1.227h-.675V6.291h.64v.448a1.41 1.41 0 01.27-.352.74.74 0 01.49-.158zm1.495.547a.455.455 0 00-.361.146.73.73 0 00-.161.396h1.043c-.012-.178-.065-.312-.162-.404a.503.503 0 00-.359-.138zm0-.553c.214 0 .406.04.577.12.171.08.313.206.424.379.1.152.166.329.195.53a3.4 3.4 0 01.022.509h-1.757c.01.257.09.437.243.54a.57.57 0 00.334.098c.138 0 .25-.04.337-.118a.552.552 0 00.125-.177h.685c-.017.152-.096.307-.238.464-.22.25-.527.375-.923.375a1.302 1.302 0 01-.864-.316c-.25-.21-.375-.553-.375-1.027 0-.444.113-.785.338-1.022.225-.237.517-.355.877-.355zm2.193 1.815c.014.12.044.205.092.255.083.089.237.134.462.134.131 0 .236-.02.314-.06.078-.038.116-.097.116-.175a.191.191 0 00-.094-.173c-.063-.04-.296-.106-.7-.202-.29-.072-.495-.162-.614-.27-.12-.108-.18-.262-.18-.462 0-.237.094-.442.28-.612.186-.17.448-.255.786-.255.32 0 .581.064.783.192.202.128.317.348.347.663h-.671a.395.395 0 00-.073-.205c-.074-.091-.2-.137-.377-.137-.146 0-.25.023-.312.068-.062.046-.093.1-.093.16 0 .078.033.133.099.168.066.036.299.098.7.186.266.063.466.158.6.284a.65.65 0 01.198.484.78.78 0 01-.284.623c-.19.16-.482.241-.877.241-.404 0-.702-.085-.894-.256a.83.83 0 01-.288-.65h.68zm3.172-1.262a.455.455 0 00-.36.146.726.726 0 00-.162.396h1.043c-.011-.178-.065-.312-.161-.404a.502.502 0 00-.36-.138zm0-.553c.214 0 .406.04.577.12.171.08.312.206.425.379.1.152.165.329.195.53a3.4 3.4 0 01.021.509h-1.757c.01.257.09.437.242.54a.572.572 0 00.335.098c.138 0 .25-.04.337-.118a.574.574 0 00.125-.177h.685c-.017.152-.097.307-.238.464-.22.25-.528.375-.923.375a1.302 1.302 0 01-.864-.316c-.25-.21-.375-.553-.375-1.027 0-.444.113-.785.338-1.022.225-.237.518-.355.877-.355zm3.093.006c.265 0 .482.07.651.21.169.138.253.369.253.69v1.73h-.687V7.295a.715.715 0 00-.055-.31c-.066-.132-.191-.198-.376-.198-.228 0-.384.096-.469.29a.993.993 0 00-.066.39v1.39h-.67V6.295h.649v.375c.086-.132.168-.227.245-.285a.852.852 0 01.525-.156zm1.26.563v-.478h.358v-.716h.664v.716h.417v.478h-.417V8.15c0 .105.013.17.04.197.027.025.108.038.245.038.044 0 .088 0 .132-.004v.502l-.318.012c-.317.01-.534-.045-.65-.165-.075-.078-.113-.196-.113-.356v-1.58h-.358zm2.393 1.246c.014.12.044.205.091.255.083.089.237.134.463.134a.7.7 0 00.314-.06c.077-.038.116-.097.116-.175a.191.191 0 00-.094-.173c-.063-.04-.296-.106-.7-.202-.29-.072-.495-.162-.614-.27-.12-.108-.18-.262-.18-.462 0-.237.094-.442.28-.612.186-.17.447-.255.785-.255.32 0 .581.064.783.192.202.128.318.348.348.663h-.671a.395.395 0 00-.073-.205c-.074-.091-.2-.137-.377-.137-.146 0-.25.023-.312.068-.062.046-.093.1-.093.16 0 .078.033.133.099.168.066.036.299.098.699.186.267.063.467.158.6.284a.65.65 0 01.198.484.78.78 0 01-.283.623c-.19.16-.482.241-.877.241-.404 0-.702-.085-.895-.256a.832.832 0 01-.288-.65h.68zm-44.288 4.331h.881l-.433-1.365-.448 1.365zm.045-2.16h.82l1.23 3.472h-.787l-.224-.713h-1.279l-.24.713h-.758l1.238-3.471zm4.63.604v2.266h.67c.341 0 .58-.17.716-.507.073-.186.11-.406.11-.662 0-.353-.055-.624-.166-.814-.11-.188-.33-.284-.66-.284h-.67zm.792-.603c.215.003.394.028.537.075.24.078.448.233.591.44.121.173.204.36.247.561.044.201.066.393.066.575 0 .461-.092.852-.278 1.173-.251.432-.639.647-1.163.647h-1.495V10.21h1.495zm3.085 2.998c.196 0 .347-.07.452-.21.105-.14.158-.338.158-.596 0-.257-.052-.455-.158-.594a.533.533 0 00-.452-.209.537.537 0 00-.453.209c-.106.14-.16.337-.16.594 0 .258.054.456.16.597.106.14.257.21.453.21v-.001zm1.315-.806c0 .377-.109.7-.326.967-.216.268-.545.402-.986.402-.442 0-.77-.134-.987-.402a1.49 1.49 0 01-.325-.967c0-.37.108-.691.325-.963.216-.271.545-.407.987-.407.441 0 .77.136.986.407.217.272.326.593.326.963zm2.013-.367a.589.589 0 00-.097-.259c-.075-.104-.192-.155-.35-.155-.226 0-.381.112-.464.336a1.41 1.41 0 00-.066.476c0 .188.022.34.066.455.08.213.23.32.452.32.157 0 .268-.042.334-.127a.634.634 0 00.12-.33h.686c-.018.21-.095.411-.221.58-.21.293-.523.44-.935.44-.413 0-.717-.122-.912-.367-.195-.245-.292-.564-.292-.954 0-.442.107-.785.322-1.03.216-.244.513-.367.89-.367.323 0 .586.072.79.217.206.144.327.4.365.765h-.688zm1.818-.92v1.547a.81.81 0 00.052.33c.061.13.182.195.36.195.23 0 .387-.093.471-.278a1 1 0 00.066-.398v-1.397h.681v2.567h-.652v-.362a1.111 1.111 0 00-.047.07.461.461 0 01-.09.104.926.926 0 01-.305.193 1.044 1.044 0 01-.345.052c-.38 0-.636-.136-.768-.41-.073-.15-.11-.373-.11-.666v-1.548h.687zm5.147-.057a.89.89 0 01.334.066c.233.099.4.31.445.56.016.086.023.213.023.38l-.004 1.617h-.688v-1.634a.532.532 0 00-.047-.24c-.06-.12-.17-.18-.33-.18-.185 0-.313.077-.384.232a.733.733 0 00-.054.294v1.528h-.676v-1.529a.853.853 0 00-.047-.331c-.057-.124-.167-.186-.332-.186-.191 0-.32.062-.386.186a.722.722 0 00-.054.315v1.545h-.681V11.12h.653v.375a1.04 1.04 0 01.235-.285c.13-.101.3-.151.506-.151a.8.8 0 01.476.13c.097.08.171.182.221.308a.856.856 0 01.328-.332c.138-.07.292-.106.462-.106zm2.433.541a.456.456 0 00-.362.147.728.728 0 00-.162.395h1.043c-.01-.177-.064-.312-.16-.404a.502.502 0 00-.36-.138zm0-.553c.213 0 .405.04.576.12.171.08.312.207.425.38.1.152.165.328.195.53.017.117.024.287.021.508h-1.757c.01.257.09.438.242.541a.57.57 0 00.335.097.49.49 0 00.337-.117.558.558 0 00.125-.177h.685c-.017.152-.097.307-.238.463-.22.25-.528.375-.923.375a1.302 1.302 0 01-.864-.315c-.25-.21-.375-.553-.375-1.027 0-.445.113-.785.338-1.023.225-.237.518-.355.877-.355zm3.092.007c.265 0 .482.07.651.209.169.138.253.369.253.69v1.73h-.687V12.12a.707.707 0 00-.055-.31c-.066-.133-.192-.198-.376-.198-.228 0-.385.096-.469.289a.99.99 0 00-.066.39v1.39h-.67V11.12h.649v.375a1.11 1.11 0 01.245-.285.85.85 0 01.525-.156zm1.26.563v-.478h.358v-.716h.664v.716h.417v.478h-.417v1.356c0 .106.013.171.04.197.026.026.108.039.245.039l.065-.001.067-.004v.502l-.318.012c-.318.01-.534-.044-.65-.165-.075-.077-.113-.196-.113-.356v-1.58h-.359zm3.285.817a.753.753 0 01-.306.111l-.15.028a.981.981 0 00-.305.092.307.307 0 00-.155.285c0 .114.032.197.095.248a.36.36 0 00.232.077.688.688 0 00.4-.127c.121-.085.185-.24.19-.464v-.25zm-.407-.313c.124-.016.212-.036.266-.059.096-.04.144-.104.144-.191 0-.105-.037-.178-.11-.218a.692.692 0 00-.321-.06c-.16 0-.271.04-.337.118a.491.491 0 00-.094.236h-.648a.987.987 0 01.188-.554c.178-.226.482-.34.914-.34.281 0 .53.057.75.168.218.112.326.322.326.631v1.178c0 .082.002.18.005.297.005.088.018.147.04.179a.236.236 0 00.1.078v.098h-.731a.72.72 0 01-.042-.146 1.7 1.7 0 01-.02-.155 1.386 1.386 0 01-.32.257.966.966 0 01-.49.124.84.84 0 01-.575-.199c-.151-.132-.228-.32-.228-.564 0-.315.122-.544.366-.685.133-.077.33-.132.588-.165l.229-.028zm3.069-1.067l.031.001.058.004v.688a1.748 1.748 0 00-.193-.012c-.27 0-.451.087-.544.264-.052.098-.078.25-.078.456v1.227h-.676v-2.567h.64v.448c.105-.171.194-.289.272-.35a.734.734 0 01.49-.159zm.586 3.12l.085.005a.965.965 0 00.188-.007.343.343 0 00.15-.054c.04-.026.077-.082.11-.167.035-.085.048-.137.042-.156l-.942-2.68h.746l.56 1.894.531-1.894h.713l-.88 2.525c-.17.487-.304.789-.403.906-.1.117-.297.175-.594.175l-.143-.001a8.447 8.447 0 01-.163-.008v-.537zm3.973-3.959h2.461v.61h-1.74v.799h1.524v.603h-1.524v1.455h-.72v-3.467zm3.583.594h-.681v-.62h.68v.62zm-.681.306h.68v2.567h-.68v-2.567zm1.345-.904h.671v3.471h-.671V10.21zm4.194.848c.113 0 .225.022.335.066a.755.755 0 01.445.56c.016.086.024.213.024.38l-.006 1.617h-.687v-1.634a.532.532 0 00-.047-.24c-.06-.12-.17-.18-.33-.18-.185 0-.313.077-.384.232a.723.723 0 00-.054.294v1.528h-.676v-1.529a.853.853 0 00-.047-.331c-.056-.124-.167-.186-.332-.186-.191 0-.32.062-.386.186a.716.716 0 00-.054.315v1.545h-.681V11.12h.652v.375c.084-.134.162-.23.236-.285a.802.802 0 01.506-.151c.196 0 .355.043.476.13.097.08.17.182.221.308a.858.858 0 01.328-.332.997.997 0 01.461-.106zm-44.821 4.578v.766h.852a.712.712 0 00.371-.086c.095-.058.143-.16.143-.305 0-.162-.063-.269-.189-.32a1.326 1.326 0 00-.415-.055h-.762zm0 1.34v.926h.852c.152 0 .271-.02.356-.061.154-.076.23-.22.23-.433 0-.181-.074-.305-.223-.373a.893.893 0 00-.351-.059h-.864zm.993-1.943c.426.007.727.13.905.37a.88.88 0 01.16.53c0 .212-.053.382-.16.511a.814.814 0 01-.264.198.776.776 0 01.402.306c.09.14.135.31.135.509 0 .205-.052.39-.156.553a.958.958 0 01-.641.448 2.416 2.416 0 01-.494.047h-1.573v-3.472h1.686zm1.835 3.964l.085.005c.066.003.129 0 .188-.007a.338.338 0 00.151-.055c.04-.026.076-.082.11-.167s.047-.136.04-.155l-.94-2.68h.746l.56 1.893.53-1.893h.713l-.88 2.525c-.17.486-.304.788-.403.905-.1.117-.297.175-.594.175h-.143a6 6 0 01-.163-.009v-.537zm6.307-2.88a.68.68 0 00-.403-.497.987.987 0 00-.397-.078c-.28 0-.51.106-.69.317-.179.211-.269.528-.269.952 0 .427.097.73.292.907a.958.958 0 00.664.266c.244 0 .443-.07.599-.21a.914.914 0 00.287-.552h-.803v-.58h1.446v1.863h-.48l-.074-.433a1.68 1.68 0 01-.376.348 1.325 1.325 0 01-.707.177c-.46 0-.837-.16-1.13-.478-.307-.32-.46-.759-.46-1.314 0-.563.155-1.013.464-1.353.31-.339.718-.508 1.227-.508.441 0 .796.112 1.063.336.268.223.422.502.461.837h-.714zm2.78 1.14a.734.734 0 01-.307.11l-.15.028a.98.98 0 00-.304.092.308.308 0 00-.156.286c0 .114.032.197.096.248.063.05.14.076.232.076a.68.68 0 00.399-.127c.121-.084.185-.24.19-.464v-.25zm-.407-.314c.123-.015.212-.035.265-.058.096-.042.144-.105.144-.191 0-.106-.037-.178-.11-.218a.692.692 0 00-.321-.06c-.159 0-.27.039-.337.118a.482.482 0 00-.094.235h-.648a.982.982 0 01.189-.553c.177-.227.482-.34.913-.34.282 0 .531.056.75.168.218.111.327.322.327.63v1.178c0 .082.001.181.004.297a.386.386 0 00.04.18.242.242 0 00.1.077v.099h-.73a.75.75 0 01-.043-.146 1.725 1.725 0 01-.019-.156 1.375 1.375 0 01-.32.257.964.964 0 01-.49.125.842.842 0 01-.576-.2c-.151-.132-.227-.32-.227-.563 0-.316.121-.544.365-.685.133-.077.33-.132.588-.165l.23-.029zm3.068-1.067c.013 0 .023 0 .032.002l.058.003v.688a1.762 1.762 0 00-.194-.012c-.27 0-.451.088-.544.264-.052.099-.077.251-.077.457v1.227h-.676v-2.567h.64v.447c.104-.17.194-.288.271-.35a.737.737 0 01.49-.159zm.586 3.121l.085.005c.066.003.129 0 .189-.007a.343.343 0 00.15-.055c.04-.026.076-.082.11-.167.033-.085.047-.136.041-.155l-.942-2.68h.746l.561 1.893.53-1.893h.714l-.881 2.525c-.17.486-.304.788-.403.905-.099.117-.297.175-.594.175h-.143a4.487 4.487 0 01-.163-.009v-.537zm3.969-.492v-3.472h.718v1.324h1.356v-1.324h.721v3.472h-.72v-1.55h-1.357v1.55h-.718zm4.102-2.567v1.547c0 .146.018.256.052.33.062.13.182.195.36.195.23 0 .387-.092.472-.278.044-.1.066-.233.066-.398v-1.396h.68v2.567h-.652v-.363a.92.92 0 00-.047.071.483.483 0 01-.09.103.93.93 0 01-.305.194 1.046 1.046 0 01-.344.051c-.38 0-.637-.136-.768-.41-.074-.15-.111-.372-.111-.666v-1.547h.687zm2.8 1.747c.015.12.046.205.093.255.083.089.237.134.461.134.132 0 .237-.02.315-.06.078-.038.116-.097.116-.176a.192.192 0 00-.094-.172c-.062-.04-.296-.106-.699-.202-.29-.072-.496-.162-.615-.271-.12-.107-.179-.26-.179-.462a.8.8 0 01.28-.61c.185-.17.447-.256.785-.256.32 0 .58.064.783.191.201.129.317.35.347.664h-.671a.4.4 0 00-.073-.205c-.074-.092-.2-.137-.377-.137-.146 0-.25.023-.312.068-.062.046-.093.1-.093.16 0 .077.033.133.099.168.066.036.299.098.7.186.266.063.467.158.6.285.132.129.198.29.198.483a.78.78 0 01-.284.623c-.19.16-.482.241-.877.241-.404 0-.702-.085-.894-.256a.83.83 0 01-.288-.65h.68zm1.897-1.246v-.478h.358v-.716h.664v.716h.417v.478h-.417v1.357c0 .105.013.17.04.197.027.025.108.038.245.038.044 0 .088 0 .132-.004v.502l-.318.011c-.317.01-.534-.044-.65-.165-.075-.077-.113-.195-.113-.355v-1.58h-.358zm3.08-.501h.681l.391 1.848.4-1.848h.7l-.744 2.567h-.69l-.403-1.87-.408 1.87h-.697l-.72-2.567h.72l.4 1.841.37-1.841zm3.232-.306h-.68v-.62h.68v.62zm-.68.306h.68v2.567h-.68v-2.567zm1.066.501v-.478h.358v-.716h.664v.716h.417v.478h-.417v1.357c0 .105.013.17.04.197.027.025.109.038.245.038.044 0 .088 0 .132-.004v.502l-.318.011c-.317.01-.534-.044-.65-.165-.076-.077-.113-.195-.113-.355v-1.58h-.358z"/><defs><linearGradient id="_Linear1" x1="0" x2="1" y1="0" y2="0" gradientTransform="translate(178.28 633.99) scale(121.46)" gradientUnits="userSpaceOnUse"><stop offset="0" stop-color="gray" stop-opacity=".17"/><stop offset=".54" stop-color="gray" stop-opacity=".07"/><stop offset="1" stop-color="gray" stop-opacity=".07"/></linearGradient><linearGradient id="_Linear2" x1="0" x2="1" y1="0" y2="0" gradientTransform="matrix(0 -531.11 531.11 0 126994 650.11)" gradientUnits="userSpaceOnUse"><stop offset="0" stop-color="gray" stop-opacity=".17"/><stop offset=".54" stop-color="gray" stop-opacity=".07"/><stop offset="1" stop-color="gray" stop-opacity=".07"/></linearGradient></defs></svg>
